<?xml version="1.0" encoding="UTF-8" standalone="no"?>
<!DOCTYPE svg PUBLIC "-//W3C//DTD SVG 1.1//EN"
 "http://www.w3.org/Graphics/SVG/1.1/DTD/svg11.dtd">
<!-- Generated by graphviz version 2.43.0 (0)
 -->
<!-- Title: controllers_diagram Pages: 1 -->
<svg width="559pt" height="386pt"
 viewBox="0.00 0.00 559.00 386.00" xmlns="http://www.w3.org/2000/svg" xmlns:xlink="http://www.w3.org/1999/xlink">
<g id="graph0" class="graph" transform="scale(1 1) rotate(0) translate(4 382)">
<title>controllers_diagram</title>
<polygon fill="transparent" stroke="transparent" points="-4,4 -4,-382 555,-382 555,4 -4,4"/>
<!-- _diagram_info -->
<g id="node1" class="node">
<title>_diagram_info</title>
<text text-anchor="start" x="8" y="-363.6" font-family="Times,serif" font-size="13.00">Controllers diagram</text>
<text text-anchor="start" x="8" y="-349.6" font-family="Times,serif" font-size="13.00">Date: Nov 15 2024 &#45; 23:02</text>
<text text-anchor="start" x="8" y="-335.6" font-family="Times,serif" font-size="13.00">Migration version: 20241115174629</text>
<text text-anchor="start" x="8" y="-321.6" font-family="Times,serif" font-size="13.00">Generated by RailRoady 1.6.0</text>
<text text-anchor="start" x="8" y="-307.6" font-family="Times,serif" font-size="13.00">http://railroady.prestonlee.com</text>
</g>
<!-- ApplicationController -->
<g id="node2" class="node">
<title>ApplicationController</title>
<path fill="none" stroke="black" d="M312,-0.5C312,-0.5 539,-0.5 539,-0.5 545,-0.5 551,-6.5 551,-12.5 551,-12.5 551,-96.5 551,-96.5 551,-102.5 545,-108.5 539,-108.5 539,-108.5 312,-108.5 312,-108.5 306,-108.5 300,-102.5 300,-96.5 300,-96.5 300,-12.5 300,-12.5 300,-6.5 306,-0.5 312,-0.5"/>
<text text-anchor="middle" x="425.5" y="-93.3" font-family="Times,serif" font-size="14.00">ApplicationController</text>
<polyline fill="none" stroke="black" points="300,-85.5 551,-85.5 "/>
<polyline fill="none" stroke="black" points="300,-61.5 551,-61.5 "/>
<text text-anchor="start" x="308" y="-46.3" font-family="Times,serif" font-size="14.00">configure_permitted_parameters</text>
<polyline fill="none" stroke="black" points="300,-38.5 551,-38.5 "/>
<text text-anchor="start" x="308" y="-23.3" font-family="Times,serif" font-size="14.00">_layout</text>
<text text-anchor="start" x="308" y="-8.3" font-family="Times,serif" font-size="14.00">_layout_from_proc</text>
</g>
<!-- FeedController -->
<g id="node3" class="node">
<title>FeedController</title>
<path fill="none" stroke="black" d="M112,-0.5C112,-0.5 242,-0.5 242,-0.5 248,-0.5 254,-6.5 254,-12.5 254,-12.5 254,-216.5 254,-216.5 254,-222.5 248,-228.5 242,-228.5 242,-228.5 112,-228.5 112,-228.5 106,-228.5 100,-222.5 100,-216.5 100,-216.5 100,-12.5 100,-12.5 100,-6.5 106,-0.5 112,-0.5"/>
<text text-anchor="middle" x="177" y="-213.3" font-family="Times,serif" font-size="14.00">FeedController</text>
<polyline fill="none" stroke="black" points="100,-205.5 254,-205.5 "/>
<text text-anchor="start" x="108" y="-190.3" font-family="Times,serif" font-size="14.00">index</text>
<text text-anchor="start" x="108" y="-175.3" font-family="Times,serif" font-size="14.00">summary</text>
<polyline fill="none" stroke="black" points="100,-167.5 254,-167.5 "/>
<polyline fill="none" stroke="black" points="100,-143.5 254,-143.5 "/>
<text text-anchor="start" x="108" y="-128.3" font-family="Times,serif" font-size="14.00">_layout</text>
<text text-anchor="start" x="108" y="-113.3" font-family="Times,serif" font-size="14.00">_layout_from_proc</text>
<text text-anchor="start" x="108" y="-98.3" font-family="Times,serif" font-size="14.00">content</text>
<text text-anchor="start" x="108" y="-83.3" font-family="Times,serif" font-size="14.00">content_id</text>
<text text-anchor="start" x="108" y="-68.3" font-family="Times,serif" font-size="14.00">contents</text>
<text text-anchor="start" x="108" y="-53.3" font-family="Times,serif" font-size="14.00">fetch_summary</text>
<text text-anchor="start" x="108" y="-38.3" font-family="Times,serif" font-size="14.00">generate_summary</text>
<text text-anchor="start" x="108" y="-23.3" font-family="Times,serif" font-size="14.00">load_news</text>
<text text-anchor="start" x="108" y="-8.3" font-family="Times,serif" font-size="14.00">sources</text>
</g>
<!-- SourcesController -->
<g id="node4" class="node">
<title>SourcesController</title>
<path fill="none" stroke="black" d="M312,-140.5C312,-140.5 434,-140.5 434,-140.5 440,-140.5 446,-146.5 446,-152.5 446,-152.5 446,-326.5 446,-326.5 446,-332.5 440,-338.5 434,-338.5 434,-338.5 312,-338.5 312,-338.5 306,-338.5 300,-332.5 300,-326.5 300,-326.5 300,-152.5 300,-152.5 300,-146.5 306,-140.5 312,-140.5"/>
<text text-anchor="middle" x="373" y="-323.3" font-family="Times,serif" font-size="14.00">SourcesController</text>
<polyline fill="none" stroke="black" points="300,-315.5 446,-315.5 "/>
<text text-anchor="start" x="308" y="-300.3" font-family="Times,serif" font-size="14.00">create</text>
<text text-anchor="start" x="308" y="-285.3" font-family="Times,serif" font-size="14.00">destroy</text>
<text text-anchor="start" x="308" y="-270.3" font-family="Times,serif" font-size="14.00">index</text>
<text text-anchor="start" x="308" y="-255.3" font-family="Times,serif" font-size="14.00">new</text>
<text text-anchor="start" x="308" y="-240.3" font-family="Times,serif" font-size="14.00">rss</text>
<text text-anchor="start" x="308" y="-225.3" font-family="Times,serif" font-size="14.00">source_params</text>
<text text-anchor="start" x="308" y="-210.3" font-family="Times,serif" font-size="14.00">valid_url?</text>
<polyline fill="none" stroke="black" points="300,-202.5 446,-202.5 "/>
<polyline fill="none" stroke="black" points="300,-178.5 446,-178.5 "/>
<text text-anchor="start" x="308" y="-163.3" font-family="Times,serif" font-size="14.00">_layout</text>
<text text-anchor="start" x="308" y="-148.3" font-family="Times,serif" font-size="14.00">_layout_from_proc</text>
</g>
</g>
</svg>
