<?xml version="1.0" encoding="UTF-8" standalone="no"?>
<!DOCTYPE svg PUBLIC "-//W3C//DTD SVG 1.1//EN"
 "http://www.w3.org/Graphics/SVG/1.1/DTD/svg11.dtd">
<!-- Generated by graphviz version 2.43.0 (0)
 -->
<!-- Title: models_diagram Pages: 1 -->
<svg width="656pt" height="302pt"
 viewBox="0.00 0.00 656.40 302.00" xmlns="http://www.w3.org/2000/svg" xmlns:xlink="http://www.w3.org/1999/xlink">
<g id="graph0" class="graph" transform="scale(1 1) rotate(0) translate(4 298)">
<title>models_diagram</title>
<polygon fill="transparent" stroke="transparent" points="-4,4 -4,-298 652.4,-298 652.4,4 -4,4"/>
<!-- _diagram_info -->
<g id="node1" class="node">
<title>_diagram_info</title>
<text text-anchor="start" x="8" y="-279.6" font-family="Times,serif" font-size="13.00">Models diagram</text>
<text text-anchor="start" x="8" y="-265.6" font-family="Times,serif" font-size="13.00">Date: Nov 15 2024 &#45; 23:02</text>
<text text-anchor="start" x="8" y="-251.6" font-family="Times,serif" font-size="13.00">Migration version: 20241115174629</text>
<text text-anchor="start" x="8" y="-237.6" font-family="Times,serif" font-size="13.00">Generated by RailRoady 1.6.0</text>
<text text-anchor="start" x="8" y="-223.6" font-family="Times,serif" font-size="13.00">http://railroady.prestonlee.com</text>
</g>
<!-- ApplicationRecord -->
<g id="node2" class="node">
<title>ApplicationRecord</title>
<ellipse fill="none" stroke="black" cx="372.5" cy="-255" rx="95.58" ry="18"/>
<text text-anchor="middle" x="372.5" y="-251.3" font-family="Times,serif" font-size="14.00">ApplicationRecord</text>
</g>
<!-- Content -->
<g id="node3" class="node">
<title>Content</title>
<ellipse fill="none" stroke="black" cx="534.5" cy="-255" rx="48.19" ry="18"/>
<text text-anchor="middle" x="534.5" y="-251.3" font-family="Times,serif" font-size="14.00">Content</text>
</g>
<!-- Source -->
<g id="node4" class="node">
<title>Source</title>
<ellipse fill="none" stroke="black" cx="475.5" cy="-162" rx="42.79" ry="18"/>
<text text-anchor="middle" x="475.5" y="-158.3" font-family="Times,serif" font-size="14.00">Source</text>
</g>
<!-- Content&#45;&gt;Source -->
<g id="edge1" class="edge">
<title>Content&#45;&gt;Source</title>
<path fill="none" stroke="#954fc3" d="M518.04,-228.62C509.86,-216 500.01,-200.81 491.85,-188.22"/>
<polygon fill="#954fc3" stroke="#954fc3" points="518.24,-228.92 519.9,-239.76 520.96,-233.11 523.68,-237.31 523.68,-237.31 523.68,-237.31 520.96,-233.11 527.45,-234.86 518.24,-228.92 518.24,-228.92"/>
<polygon fill="#954fc3" stroke="#954fc3" points="491.69,-187.98 490.03,-177.14 488.97,-183.78 486.25,-179.58 486.25,-179.58 486.25,-179.58 488.97,-183.78 482.48,-182.03 491.69,-187.98 491.69,-187.98"/>
</g>
<!-- Summary -->
<g id="node6" class="node">
<title>Summary</title>
<ellipse fill="none" stroke="black" cx="592.5" cy="-162" rx="55.79" ry="18"/>
<text text-anchor="middle" x="592.5" y="-158.3" font-family="Times,serif" font-size="14.00">Summary</text>
</g>
<!-- Content&#45;&gt;Summary -->
<g id="edge2" class="edge">
<title>Content&#45;&gt;Summary</title>
<path fill="none" stroke="#c223c9" d="M550.64,-228.67C558.63,-216.15 568.24,-201.06 576.24,-188.51"/>
<polygon fill="#c223c9" stroke="#c223c9" points="550.51,-228.88 541.34,-234.89 547.83,-233.09 545.14,-237.31 545.14,-237.31 545.14,-237.31 547.83,-233.09 548.93,-239.73 550.51,-228.88 550.51,-228.88"/>
<polygon fill="#c223c9" stroke="#c223c9" points="576.36,-188.33 585.53,-182.31 579.05,-184.11 581.73,-179.89 581.73,-179.89 581.73,-179.89 579.05,-184.11 577.94,-177.47 576.36,-188.33 576.36,-188.33"/>
</g>
<!-- Subscription -->
<g id="node5" class="node">
<title>Subscription</title>
<ellipse fill="none" stroke="black" cx="426.5" cy="-90" rx="69.59" ry="18"/>
<text text-anchor="middle" x="426.5" y="-86.3" font-family="Times,serif" font-size="14.00">Subscription</text>
</g>
<!-- Source&#45;&gt;Subscription -->
<g id="edge3" class="edge">
<title>Source&#45;&gt;Subscription</title>
<path fill="none" stroke="#8c64ca" d="M458.14,-136.21C453.64,-129.78 448.79,-122.84 444.27,-116.38"/>
<polygon fill="#8c64ca" stroke="#8c64ca" points="458.15,-136.22 460.2,-146.99 461.02,-140.31 463.89,-144.41 463.89,-144.41 463.89,-144.41 461.02,-140.31 467.57,-141.83 458.15,-136.22 458.15,-136.22"/>
<polygon fill="#8c64ca" stroke="#8c64ca" points="444.1,-116.15 442.06,-105.38 441.24,-112.05 438.37,-107.96 438.37,-107.96 438.37,-107.96 441.24,-112.05 434.68,-110.54 444.1,-116.15 444.1,-116.15"/>
</g>
<!-- User -->
<g id="node7" class="node">
<title>User</title>
<ellipse fill="none" stroke="black" cx="475.5" cy="-18" rx="33.29" ry="18"/>
<text text-anchor="middle" x="475.5" y="-14.3" font-family="Times,serif" font-size="14.00">User</text>
</g>
<!-- Source&#45;&gt;User -->
<g id="edge4" class="edge">
<title>Source&#45;&gt;User</title>
<path fill="none" stroke="#e94e80" d="M493.29,-135.74C498.25,-127.31 502.97,-117.61 505.5,-108 509.58,-92.53 509.58,-87.47 505.5,-72 502.93,-62.24 498.1,-52.39 493.06,-43.87"/>
<polygon fill="#e94e80" stroke="#e94e80" points="493.23,-135.84 484.1,-141.92 490.57,-140.08 487.91,-144.32 487.91,-144.32 487.91,-144.32 490.57,-140.08 491.73,-146.71 493.23,-135.84 493.23,-135.84"/>
<polygon fill="#e94e80" stroke="#e94e80" points="492.94,-43.68 491.41,-32.82 490.27,-39.45 487.6,-35.22 487.6,-35.22 487.6,-35.22 490.27,-39.45 483.8,-37.62 492.94,-43.68 492.94,-43.68"/>
</g>
<!-- Subscription&#45;&gt;User -->
<g id="edge5" class="edge">
<title>Subscription&#45;&gt;User</title>
<path fill="none" stroke="#ec2a45" d="M444.19,-63.73C448.74,-57.22 453.64,-50.22 458.18,-43.74"/>
<polygon fill="#ec2a45" stroke="#ec2a45" points="444.1,-63.86 434.67,-69.47 441.23,-67.96 438.36,-72.05 438.36,-72.05 438.36,-72.05 441.23,-67.96 442.05,-74.64 444.1,-63.86 444.1,-63.86"/>
<polygon fill="#ec2a45" stroke="#ec2a45" points="458.35,-43.5 467.77,-37.89 461.22,-39.4 464.09,-35.31 464.09,-35.31 464.09,-35.31 461.22,-39.4 460.4,-32.73 458.35,-43.5 458.35,-43.5"/>
</g>
</g>
</svg>
