<?xml version="1.0" encoding="UTF-8" standalone="no"?>
<!DOCTYPE svg PUBLIC "-//W3C//DTD SVG 1.1//EN"
 "http://www.w3.org/Graphics/SVG/1.1/DTD/svg11.dtd">
<!-- Generated by graphviz version 2.43.0 (0)
 -->
<!-- Title: models_diagram Pages: 1 -->
<svg width="1005pt" height="709pt"
 viewBox="0.00 0.00 1005.00 709.00" xmlns="http://www.w3.org/2000/svg" xmlns:xlink="http://www.w3.org/1999/xlink">
<g id="graph0" class="graph" transform="scale(1 1) rotate(0) translate(4 705)">
<title>models_diagram</title>
<polygon fill="transparent" stroke="transparent" points="-4,4 -4,-705 1001,-705 1001,4 -4,4"/>
<!-- _diagram_info -->
<g id="node1" class="node">
<title>_diagram_info</title>
<text text-anchor="start" x="8" y="-642.1" font-family="Times,serif" font-size="13.00">Models diagram</text>
<text text-anchor="start" x="8" y="-628.1" font-family="Times,serif" font-size="13.00">Date: Nov 15 2024 &#45; 23:02</text>
<text text-anchor="start" x="8" y="-614.1" font-family="Times,serif" font-size="13.00">Migration version: 20241115174629</text>
<text text-anchor="start" x="8" y="-600.1" font-family="Times,serif" font-size="13.00">Generated by RailRoady 1.6.0</text>
<text text-anchor="start" x="8" y="-586.1" font-family="Times,serif" font-size="13.00">http://railroady.prestonlee.com</text>
</g>
<!-- ApplicationRecord -->
<g id="node2" class="node">
<title>ApplicationRecord</title>
<ellipse fill="none" stroke="black" cx="372.5" cy="-617.5" rx="95.58" ry="18"/>
<text text-anchor="middle" x="372.5" y="-613.8" font-family="Times,serif" font-size="14.00">ApplicationRecord</text>
</g>
<!-- Content -->
<g id="node3" class="node">
<title>Content</title>
<path fill="none" stroke="black" d="M498,-534.5C498,-534.5 809,-534.5 809,-534.5 815,-534.5 821,-540.5 821,-546.5 821,-546.5 821,-688.5 821,-688.5 821,-694.5 815,-700.5 809,-700.5 809,-700.5 498,-700.5 498,-700.5 492,-700.5 486,-694.5 486,-688.5 486,-688.5 486,-546.5 486,-546.5 486,-540.5 492,-534.5 498,-534.5"/>
<text text-anchor="middle" x="653.5" y="-685.3" font-family="Times,serif" font-size="14.00">Content</text>
<polyline fill="none" stroke="black" points="486,-677.5 821,-677.5 "/>
<text text-anchor="start" x="494" y="-662.3" font-family="Times,serif" font-size="14.00">id :bigint</text>
<text text-anchor="start" x="494" y="-647.3" font-family="Times,serif" font-size="14.00">title :text</text>
<text text-anchor="start" x="494" y="-632.3" font-family="Times,serif" font-size="14.00">content :text</text>
<text text-anchor="start" x="494" y="-617.3" font-family="Times,serif" font-size="14.00">identifier :character varying(255)</text>
<text text-anchor="start" x="494" y="-602.3" font-family="Times,serif" font-size="14.00">lock_version :integer</text>
<text text-anchor="start" x="494" y="-587.3" font-family="Times,serif" font-size="14.00">source_id :bigint</text>
<text text-anchor="start" x="494" y="-572.3" font-family="Times,serif" font-size="14.00">created_at :timestamp(6) without time zone</text>
<text text-anchor="start" x="494" y="-557.3" font-family="Times,serif" font-size="14.00">updated_at :timestamp(6) without time zone</text>
<text text-anchor="start" x="494" y="-542.3" font-family="Times,serif" font-size="14.00">pub_date :timestamp(6) without time zone</text>
</g>
<!-- Source -->
<g id="node4" class="node">
<title>Source</title>
<path fill="none" stroke="black" d="M321,-369C321,-369 632,-369 632,-369 638,-369 644,-375 644,-381 644,-381 644,-463 644,-463 644,-469 638,-475 632,-475 632,-475 321,-475 321,-475 315,-475 309,-469 309,-463 309,-463 309,-381 309,-381 309,-375 315,-369 321,-369"/>
<text text-anchor="middle" x="476.5" y="-459.8" font-family="Times,serif" font-size="14.00">Source</text>
<polyline fill="none" stroke="black" points="309,-452 644,-452 "/>
<text text-anchor="start" x="317" y="-436.8" font-family="Times,serif" font-size="14.00">id :bigint</text>
<text text-anchor="start" x="317" y="-421.8" font-family="Times,serif" font-size="14.00">url :character varying(255)</text>
<text text-anchor="start" x="317" y="-406.8" font-family="Times,serif" font-size="14.00">created_at :timestamp(6) without time zone</text>
<text text-anchor="start" x="317" y="-391.8" font-family="Times,serif" font-size="14.00">updated_at :timestamp(6) without time zone</text>
<text text-anchor="start" x="317" y="-376.8" font-family="Times,serif" font-size="14.00">name :character varying</text>
</g>
<!-- Content&#45;&gt;Source -->
<g id="edge1" class="edge">
<title>Content&#45;&gt;Source</title>
<path fill="none" stroke="#35053d" d="M571.52,-526.87C557.84,-511.93 543.96,-496.75 531.19,-482.78"/>
<polygon fill="#35053d" stroke="#35053d" points="571.69,-527.06 575.12,-537.48 575.06,-530.75 578.44,-534.44 578.44,-534.44 578.44,-534.44 575.06,-530.75 581.76,-531.4 571.69,-527.06 571.69,-527.06"/>
<polygon fill="#35053d" stroke="#35053d" points="530.96,-482.54 527.53,-472.12 527.59,-478.85 524.21,-475.16 524.21,-475.16 524.21,-475.16 527.59,-478.85 520.89,-478.2 530.96,-482.54 530.96,-482.54"/>
</g>
<!-- Summary -->
<g id="node6" class="node">
<title>Summary</title>
<path fill="none" stroke="black" d="M674,-346.5C674,-346.5 985,-346.5 985,-346.5 991,-346.5 997,-352.5 997,-358.5 997,-358.5 997,-485.5 997,-485.5 997,-491.5 991,-497.5 985,-497.5 985,-497.5 674,-497.5 674,-497.5 668,-497.5 662,-491.5 662,-485.5 662,-485.5 662,-358.5 662,-358.5 662,-352.5 668,-346.5 674,-346.5"/>
<text text-anchor="middle" x="829.5" y="-482.3" font-family="Times,serif" font-size="14.00">Summary</text>
<polyline fill="none" stroke="black" points="662,-474.5 997,-474.5 "/>
<text text-anchor="start" x="670" y="-459.3" font-family="Times,serif" font-size="14.00">id :bigint</text>
<text text-anchor="start" x="670" y="-444.3" font-family="Times,serif" font-size="14.00">summary :text</text>
<text text-anchor="start" x="670" y="-429.3" font-family="Times,serif" font-size="14.00">principal_facts :text</text>
<text text-anchor="start" x="670" y="-414.3" font-family="Times,serif" font-size="14.00">conclusion :text</text>
<text text-anchor="start" x="670" y="-399.3" font-family="Times,serif" font-size="14.00">context :text</text>
<text text-anchor="start" x="670" y="-384.3" font-family="Times,serif" font-size="14.00">created_at :timestamp(6) without time zone</text>
<text text-anchor="start" x="670" y="-369.3" font-family="Times,serif" font-size="14.00">updated_at :timestamp(6) without time zone</text>
<text text-anchor="start" x="670" y="-354.3" font-family="Times,serif" font-size="14.00">content_id :bigint</text>
</g>
<!-- Content&#45;&gt;Summary -->
<g id="edge2" class="edge">
<title>Content&#45;&gt;Summary</title>
<path fill="none" stroke="#bc5be1" d="M734.96,-526.94C741.54,-519.71 748.17,-512.42 754.69,-505.25"/>
<polygon fill="#bc5be1" stroke="#bc5be1" points="734.87,-527.04 724.81,-531.41 731.5,-530.74 728.14,-534.44 728.14,-534.44 728.14,-534.44 731.5,-530.74 731.47,-537.47 734.87,-527.04 734.87,-527.04"/>
<polygon fill="#bc5be1" stroke="#bc5be1" points="755,-504.91 765.06,-500.54 758.36,-501.21 761.73,-497.51 761.73,-497.51 761.73,-497.51 758.36,-501.21 758.4,-494.48 755,-504.91 755,-504.91"/>
</g>
<!-- Subscription -->
<g id="node5" class="node">
<title>Subscription</title>
<path fill="none" stroke="black" d="M223,-203.5C223,-203.5 534,-203.5 534,-203.5 540,-203.5 546,-209.5 546,-215.5 546,-215.5 546,-297.5 546,-297.5 546,-303.5 540,-309.5 534,-309.5 534,-309.5 223,-309.5 223,-309.5 217,-309.5 211,-303.5 211,-297.5 211,-297.5 211,-215.5 211,-215.5 211,-209.5 217,-203.5 223,-203.5"/>
<text text-anchor="middle" x="378.5" y="-294.3" font-family="Times,serif" font-size="14.00">Subscription</text>
<polyline fill="none" stroke="black" points="211,-286.5 546,-286.5 "/>
<text text-anchor="start" x="219" y="-271.3" font-family="Times,serif" font-size="14.00">id :bigint</text>
<text text-anchor="start" x="219" y="-256.3" font-family="Times,serif" font-size="14.00">user_id :bigint</text>
<text text-anchor="start" x="219" y="-241.3" font-family="Times,serif" font-size="14.00">source_id :bigint</text>
<text text-anchor="start" x="219" y="-226.3" font-family="Times,serif" font-size="14.00">created_at :timestamp(6) without time zone</text>
<text text-anchor="start" x="219" y="-211.3" font-family="Times,serif" font-size="14.00">updated_at :timestamp(6) without time zone</text>
</g>
<!-- Source&#45;&gt;Subscription -->
<g id="edge3" class="edge">
<title>Source&#45;&gt;Subscription</title>
<path fill="none" stroke="#e8a918" d="M439.82,-359.81C431.73,-346.3 423.15,-331.99 415.05,-318.49"/>
<polygon fill="#e8a918" stroke="#e8a918" points="440.08,-360.24 441.36,-371.13 442.65,-364.53 445.22,-368.82 445.22,-368.82 445.22,-368.82 442.65,-364.53 449.08,-366.5 440.08,-360.24 440.08,-360.24"/>
<polygon fill="#e8a918" stroke="#e8a918" points="414.96,-318.32 413.68,-307.43 412.39,-314.04 409.82,-309.75 409.82,-309.75 409.82,-309.75 412.39,-314.04 405.96,-312.06 414.96,-318.32 414.96,-318.32"/>
</g>
<!-- User -->
<g id="node7" class="node">
<title>User</title>
<path fill="none" stroke="black" d="M276,-0.5C276,-0.5 677,-0.5 677,-0.5 683,-0.5 689,-6.5 689,-12.5 689,-12.5 689,-154.5 689,-154.5 689,-160.5 683,-166.5 677,-166.5 677,-166.5 276,-166.5 276,-166.5 270,-166.5 264,-160.5 264,-154.5 264,-154.5 264,-12.5 264,-12.5 264,-6.5 270,-0.5 276,-0.5"/>
<text text-anchor="middle" x="476.5" y="-151.3" font-family="Times,serif" font-size="14.00">User</text>
<polyline fill="none" stroke="black" points="264,-143.5 689,-143.5 "/>
<text text-anchor="start" x="272" y="-128.3" font-family="Times,serif" font-size="14.00">id :bigint</text>
<text text-anchor="start" x="272" y="-113.3" font-family="Times,serif" font-size="14.00">email :character varying</text>
<text text-anchor="start" x="272" y="-98.3" font-family="Times,serif" font-size="14.00">encrypted_password :character varying</text>
<text text-anchor="start" x="272" y="-83.3" font-family="Times,serif" font-size="14.00">reset_password_token :character varying</text>
<text text-anchor="start" x="272" y="-68.3" font-family="Times,serif" font-size="14.00">reset_password_sent_at :timestamp(6) without time zone</text>
<text text-anchor="start" x="272" y="-53.3" font-family="Times,serif" font-size="14.00">remember_created_at :timestamp(6) without time zone</text>
<text text-anchor="start" x="272" y="-38.3" font-family="Times,serif" font-size="14.00">created_at :timestamp(6) without time zone</text>
<text text-anchor="start" x="272" y="-23.3" font-family="Times,serif" font-size="14.00">updated_at :timestamp(6) without time zone</text>
<text text-anchor="start" x="272" y="-8.3" font-family="Times,serif" font-size="14.00">name :character varying</text>
</g>
<!-- Source&#45;&gt;User -->
<g id="edge4" class="edge">
<title>Source&#45;&gt;User</title>
<path fill="none" stroke="#5c7112" d="M528.8,-360.57C539.34,-345.05 548.9,-327.72 554.5,-310 568.84,-264.66 568.15,-248.56 554.5,-203 551.75,-193.81 548.02,-184.67 543.69,-175.78"/>
<polygon fill="#5c7112" stroke="#5c7112" points="528.62,-360.81 519.18,-366.39 525.74,-364.9 522.86,-368.99 522.86,-368.99 522.86,-368.99 525.74,-364.9 526.54,-371.58 528.62,-360.81 528.62,-360.81"/>
<polygon fill="#5c7112" stroke="#5c7112" points="543.55,-175.5 542.97,-164.55 541.26,-171.06 538.97,-166.61 538.97,-166.61 538.97,-166.61 541.26,-171.06 534.97,-168.67 543.55,-175.5 543.55,-175.5"/>
</g>
<!-- Subscription&#45;&gt;User -->
<g id="edge5" class="edge">
<title>Subscription&#45;&gt;User</title>
<path fill="none" stroke="#52994b" d="M413.51,-194.41C417.06,-188.22 420.71,-181.84 424.39,-175.42"/>
<polygon fill="#52994b" stroke="#52994b" points="413.41,-194.59 404.53,-201.03 410.92,-198.93 408.44,-203.27 408.44,-203.27 408.44,-203.27 410.92,-198.93 412.34,-205.5 413.41,-194.59 413.41,-194.59"/>
<polygon fill="#52994b" stroke="#52994b" points="424.44,-175.33 433.32,-168.9 426.93,-171 429.42,-166.66 429.42,-166.66 429.42,-166.66 426.93,-171 425.51,-164.42 424.44,-175.33 424.44,-175.33"/>
</g>
</g>
</svg>
